<?xml version="1.0" standalone="no"?>
<!DOCTYPE svg PUBLIC "-//W3C//DTD SVG 20010904//EN"
 "http://www.w3.org/TR/2001/REC-SVG-20010904/DTD/svg10.dtd">
<svg version="1.0" xmlns="http://www.w3.org/2000/svg"
 width="80.000000pt" height="80.000000pt" viewBox="0 0 80.000000 80.000000"
 preserveAspectRatio="xMidYMid meet">
<metadata>
Created by potrace 1.14, written by Peter Selinger 2001-2017
</metadata>
<g transform="translate(0.000000,80.000000) scale(0.100000,-0.100000)"
fill="#000000" stroke="none">
<path d="M0 400 l0 -400 400 0 400 0 0 400 0 400 -400 0 -400 0 0 -400z m455
175 c14 -13 25 -33 25 -45 0 -16 6 -20 30 -20 19 0 40 -9 55 -25 23 -23 25
-31 25 -130 0 -99 -2 -107 -25 -130 -22 -23 -31 -25 -125 -25 -99 0 -102 1
-131 29 -16 16 -29 37 -29 45 0 11 -9 16 -29 16 -20 0 -37 9 -55 31 -24 28
-26 38 -26 126 0 91 1 96 29 124 29 28 32 29 131 29 94 0 103 -2 125 -25z"/>
<path d="M232 538 c-18 -18 -16 -172 2 -187 9 -8 46 -11 103 -9 l88 3 0 100 0
100 -90 3 c-62 2 -94 -1 -103 -10z"/>
<path d="M480 400 c0 -82 -26 -110 -100 -110 -50 0 -57 -4 -42 -28 6 -9 34
-12 103 -10 l94 3 0 100 0 100 -27 3 c-28 3 -28 3 -28 -58z"/>
</g>
</svg>
